<?xml version="1.0" encoding="UTF-8"?>
<svg id="Layer_1" xmlns="http://www.w3.org/2000/svg" viewBox="0 0 233.02 213.05">
  <defs>
    <style>
      .cls-1 {
        fill: #fff;
      }

      .cls-2 {
        fill: #cf7028;
      }
    </style>
  </defs>
  <polygon class="cls-2" points="233.02 0 233.02 213.05 0 213.05 0 0 41.9 0 41.9 41.9 95.52 41.9 95.52 0 137.5 0 137.5 41.9 191.11 41.9 191.11 0 233.02 0"/>
  <path class="cls-1" d="M163.83,173.04v40.01h-76.39c-5.02,0-9.32-1.8-12.91-5.35s-5.35-7.86-5.35-12.91v-116.51c0-5.02,1.8-9.32,5.35-12.91,3.56-3.48,7.86-5.24,12.91-5.24h76.39v40.01h-46.45c-1.24,0-2.28.45-3.18,1.31-.86.86-1.31,1.95-1.31,3.18v63.93c0,1.24.45,2.28,1.31,3.18.86.86,1.95,1.31,3.18,1.31h46.45Z"/>
</svg>