<?xml version="1.0" encoding="UTF-8"?>
<svg id="Layer_1" data-name="Layer 1" xmlns="http://www.w3.org/2000/svg" viewBox="0 0 358.98 370.21">
  <defs>
    <style>
      .cls-1 {
        fill: #1e2530;
      }
    </style>
  </defs>
  <path class="cls-1" d="M304.34,131.74l8.17-24L230.81,28.6,65.87,0l51.06,32.17,90.89,7.66-168,4.09-16.08,82.98L219.06,39.83l69.96,67.4-9.7,16.34,63.32,73.02-74.55-3.06,39.83,24-6.13,24.51-68.94,16.85-30.64-18.38,15.83-57.7-35.74-21.96,18.89,153.19,66.89,56.17,1.02-48,60.26-9.7,29.62-115.91-54.64-64.85ZM317.62,302.3l-80.17,9.7,13.28-44.94,56.68-15.83,19.4,11.74-9.19,39.32Z"/>
  <polygon class="cls-1" points="22.6 139.51 149.62 83.23 160.34 102.13 240.51 115.91 255.32 148.09 139.66 102.64 148.09 141.96 169.53 154.21 188.94 300.26 92.43 194.04 136.85 132.77 132.77 119.49 24 266.55 0 253.79 22.6 139.51"/>
  <polygon class="cls-1" points="34.21 272.68 85.28 202.72 185.87 317.11 251.74 370.21 113.36 312 71.49 292.6 34.21 272.68"/>
</svg>