<?xml version="1.0" encoding="UTF-8"?>
<svg id="Layer_1" xmlns="http://www.w3.org/2000/svg" xmlns:xlink="http://www.w3.org/1999/xlink" viewBox="0 0 249.18 117.33">
  <defs>
    <style>
      .cls-1 {
        fill: url(#linear-gradient-2);
      }

      .cls-2 {
        fill: url(#linear-gradient-4);
      }

      .cls-3 {
        fill: url(#linear-gradient-3);
      }

      .cls-4 {
        fill: url(#linear-gradient-5);
      }

      .cls-5 {
        fill: url(#linear-gradient-8);
      }

      .cls-6 {
        fill: url(#linear-gradient-7);
      }

      .cls-7 {
        fill: #d06f1c;
      }

      .cls-8 {
        fill: url(#linear-gradient-6);
      }

      .cls-9 {
        fill: url(#linear-gradient);
      }
    </style>
    <linearGradient id="linear-gradient" x1="0" y1="110.31" x2="249.18" y2="110.31" gradientTransform="translate(0 132) scale(1 -1)" gradientUnits="userSpaceOnUse">
      <stop offset="0" stop-color="#d06f1c"/>
      <stop offset="0" stop-color="#f7941d"/>
      <stop offset="0" stop-color="#f7941d"/>
      <stop offset="0" stop-color="#d06f1c"/>
      <stop offset=".79" stop-color="#f7941d"/>
      <stop offset=".98" stop-color="#ebbd74"/>
    </linearGradient>
    <linearGradient id="linear-gradient-2" x1="20.55" y1="60.37" x2="229.63" y2="60.37" xlink:href="#linear-gradient"/>
    <linearGradient id="linear-gradient-3" x1="19.2" y1="60.37" x2="233.16" y2="60.37" xlink:href="#linear-gradient"/>
    <linearGradient id="linear-gradient-4" x1="17.59" y1="60.37" x2="233.7" y2="60.37" xlink:href="#linear-gradient"/>
    <linearGradient id="linear-gradient-5" x1="13.59" y1="60.37" x2="236.65" y2="60.37" xlink:href="#linear-gradient"/>
    <linearGradient id="linear-gradient-6" x1="12.52" y1="60.36" x2="231.87" y2="60.36" xlink:href="#linear-gradient"/>
    <linearGradient id="linear-gradient-7" x1="7.82" y1="60.36" x2="231.77" y2="60.36" xlink:href="#linear-gradient"/>
    <linearGradient id="linear-gradient-8" x1="6.45" y1="60.37" x2="228.63" y2="60.37" xlink:href="#linear-gradient"/>
  </defs>
  <polygon class="cls-9" points="249.18 36.56 249.18 43.38 0 43.38 0 36.56 59.08 36.56 59.08 13.05 65.86 13.05 65.86 19.31 72.05 19.31 72.05 13.05 78.84 13.05 78.84 19.31 85.02 19.31 85.02 13.05 91.81 13.05 91.81 36.56 102.32 36.56 102.32 0 111.51 0 111.51 9.61 119.89 9.61 119.89 0 129.07 0 129.07 9.61 137.44 9.61 137.44 0 146.63 0 146.63 36.56 157.14 36.56 157.14 13.05 163.93 13.05 163.93 19.31 170.12 19.31 170.12 13.05 176.9 13.05 176.9 19.31 183.09 19.31 183.09 13.05 189.87 13.05 189.87 36.56 249.18 36.56"/>
  <g>
    <path class="cls-7" d="M59.7,96.55h4.06v8.46h4.36v-8.46h4.06v20.78h-4.06v-9.35h-4.36v9.35h-4.06v-20.78Z"/>
    <path class="cls-7" d="M85.27,96.55h11.09v2.97h-7.02v5.49h5.58v2.97h-5.58v6.38h7.02v2.97h-11.09s0-20.78,0-20.78Z"/>
    <path class="cls-7" d="M111.88,96.55h5.51l4.21,20.78h-4.06l-.74-4.13v.06h-4.62l-.74,4.07h-3.77s4.21-20.78,4.21-20.78ZM116.31,110.45l-1.81-10.27h-.07l-1.77,10.27h3.66-.01Z"/>
    <path class="cls-7" d="M133.61,96.55h4.06v17.81h6.69v2.97h-10.75v-20.78Z"/>
    <path class="cls-7" d="M156.66,99.52h-4.25v-2.97h12.56v2.97h-4.25v17.81h-4.06v-17.81Z"/>
    <path class="cls-7" d="M177,96.55h4.06v8.46h4.36v-8.46h4.06v20.78h-4.06v-9.35h-4.36v9.35h-4.06v-20.78Z"/>
  </g>
  <g>
    <path class="cls-1" d="M45.84,81.37v10.69h-20.41c-1.34,0-2.49-.48-3.45-1.43s-1.43-2.1-1.43-3.45v-31.13c0-1.34.48-2.49,1.43-3.45.95-.93,2.1-1.4,3.45-1.4h20.41v10.69h-12.41c-.33,0-.61.12-.85.35-.23.23-.35.52-.35.85v17.08c0,.33.12.61.35.85.23.23.52.35.85.35h12.41Z"/>
    <path class="cls-3" d="M78.58,51.21l-8.34,21.4v19.45h-11.95v-19.45l-8.34-21.4h11.95l2.36,6.07,2.36-6.07h11.95Z"/>
    <path class="cls-2" d="M108.63,51.21v11.65h-7.03v29.2h-12.07v-29.2h-7.03v-11.65h26.14-.01Z"/>
    <path class="cls-4" d="M137.57,51.2l3.12,40.85h-11.44l-.44-5.84h-4.3l-.47,5.84h-11.4l3.12-40.85h21.82ZM124.12,76.5h2.81l-1.4-18.48-1.4,18.48h-.01Z"/>
    <path class="cls-8" d="M159.62,51.21c2.68,0,5.09,1.23,7.23,3.68,1.98,2.3,2.97,4.63,2.97,7.01v19.48c0,3.11-.99,5.68-2.97,7.71-1.96,1.99-4.37,2.98-7.23,2.98h-17.12v-40.85h17.12,0ZM157.58,63.09c0-.33-.13-.61-.37-.85-.24-.23-.54-.35-.86-.35h-1.59v19.48h1.59c.33,0,.61-.12.86-.35.24-.23.37-.52.37-.85v-17.08Z"/>
    <path class="cls-6" d="M199.57,51.21v10.69h-13.54v4.88h8.32v9.72h-8.32v4.88h13.54v10.69h-26.05v-40.85h26.05Z"/>
    <path class="cls-5" d="M214.17,51.21v29.17h14.46v11.68h-26.87v-40.85h12.41Z"/>
  </g>
</svg>